<?xml version="1.0" encoding="UTF-8" standalone="no"?>
<svg width="173px" height="285px" viewBox="0 0 173 285" version="1.1" xmlns="http://www.w3.org/2000/svg" xmlns:xlink="http://www.w3.org/1999/xlink" xmlns:sketch="http://www.bohemiancoding.com/sketch/ns">
    <!-- Generator: Sketch 3.3.3 (12081) - http://www.bohemiancoding.com/sketch -->
    <title>Slice 1</title>
    <desc>Created with Sketch.</desc>
    <defs></defs>
    <g id="Page-1" stroke="none" stroke-width="1" fill="none" fill-rule="evenodd" sketch:type="MSPage">
        <g id="Orion" sketch:type="MSLayerGroup">
            <g id="Connections" transform="translate(37.000000, 19.000000)" fill="#959595" sketch:type="MSShapeGroup">
                <path d="M21.7969548,97.2559132 L0.00246439898,44.0679529 L0.00246439898,44.0679529 C1.31410147,43.7392906 2.574166,43.2813116 3.76816433,42.7084167 L25.3377891,95.3476079 C24.0086822,95.7121008 22.8028671,96.3735309 21.7969548,97.2559132 Z" id="Shape"></path>
                <path d="M27.4318769,112.90026 L19.1894177,161.44777 L19.1894177,161.44777 C18.0549329,161.074457 16.8422806,160.872444 15.5824059,160.872444 C15.464164,160.872444 15.346338,160.874223 15.2289535,160.877757 L23.5479487,111.879456 C24.7145737,112.491764 26.0329293,112.855552 27.4318769,112.90026 Z" id="Shape"></path>
                <path d="M98.9010081,149.111409 L27.0577442,171.750961 L27.0577442,171.750961 C26.9904485,170.368585 26.6768784,169.05077 26.1598426,167.840005 L97.6444774,145.313466 C97.8623178,146.662176 98.292972,147.939883 98.9010081,149.111409 Z" id="Shape"></path>
                <path d="M71.9116232,83.0032622 L104.510057,131.90956 L104.510057,131.90956 C103.304415,132.515577 102.208248,133.306217 101.259083,134.244221 L68.3440354,84.8629196 C69.6795387,84.5165578 70.8942182,83.8713967 71.9116232,83.0032622 Z" id="Shape"></path>
                <path d="M55.8812751,86.308292 L60.5867797,83.2827898 L60.5867797,83.2827898 C59.51517,82.4559572 58.6365197,81.3927082 58.0298031,80.1713718 L53.4012197,83.1474159 C54.4498948,83.9958359 55.3026819,85.0753499 55.8812751,86.308292 Z" id="Shape"></path>
                <path d="M41.9216873,96.8874723 L36.1419655,100.861734 L36.1419655,100.861734 C35.6672268,99.5849483 34.9081184,98.4458313 33.9413864,97.5205019 L39.527787,93.6791723 C40.0756788,94.9223335 40.8994148,96.0173256 41.9216873,96.8874723 Z" id="Shape"></path>
                <path d="M68.6236197,67.638743 L82.7425179,43.8553411 L82.7425179,43.8553411 C83.8099418,44.6489258 85.017525,45.2657746 86.3214836,45.6624285 L72.1124746,69.5976228 C71.1252437,68.7032881 69.9370798,68.0253219 68.6236197,67.638743 Z" id="Shape"></path>
                <path d="M80.1183029,27.8246564 L56.8121298,5.92710704 L56.8121298,5.92710704 C57.8834835,5.12114482 58.8432104,4.17579375 59.664069,3.11810795 L82.9352192,24.9827512 C81.841124,25.762263 80.887146,26.7244594 80.1183029,27.8246564 Z" id="Shape"></path>
                <path d="M13.9151747,18.1426003 L36.5601929,3.98696113 L36.5601929,3.98696113 C35.6651735,2.99724876 34.9007069,1.88812631 34.2938416,0.686456321 L12.1788631,14.510762 C12.8748136,15.6510868 13.4586647,16.8667475 13.9151747,18.1426003 Z" id="Shape"></path>
            </g>
            <g id="Stars" transform="translate(14.000000, 0.000000)" fill="#A7D5FF" sketch:type="MSShapeGroup">
                <ellipse id="Oval-11" cx="50.5551627" cy="123.209966" rx="6.97312588" ry="6.9385583"></ellipse>
                <ellipse id="Oval-12" cx="70.5783463" cy="109.33285" rx="6.97312588" ry="6.9385583"></ellipse>
                <ellipse id="Oval-12-Copy" cx="38.4127631" cy="191.558017" rx="9.48902263" ry="9.44198309"></ellipse>
                <ellipse id="Oval-12-Copy-2" cx="133.090947" cy="162.520319" rx="10.7788812" ry="10.7254475"></ellipse>
                <ellipse id="Oval-12-Copy-3" cx="88.907355" cy="95.4557329" rx="6.97312588" ry="6.9385583"></ellipse>
                <ellipse id="Oval-10" cx="112.582836" cy="53.7327649" rx="9.72922934" ry="9.68099903"></ellipse>
                <ellipse id="Oval-9" cx="17.9484332" cy="44.0517658" rx="17.9484332" ry="17.8594582"></ellipse>
                <ellipse id="Oval-10-Copy" cx="70.5783463" cy="13.2069424" rx="13.0500578" ry="12.9853653"></ellipse>
            </g>
            <g id="Title" transform="translate(0.000000, 197.000000)">
                <text id="Orion" sketch:type="MSTextLayer" font-family="Avenir" font-size="64" font-weight="686" line-spacing="70" fill="#959595">
                    <tspan x="0.261643114" y="64.5">Orion</tspan>
                </text>
                <circle id="Oval-17" fill="#A7D5FF" sketch:type="MSShapeGroup" cx="87.7616431" cy="23" r="7.5"></circle>
            </g>
        </g>
    </g>
</svg>